PathFileType	4	(X/Y/Z)	/Users/itak/Documents/Research/Walk-IL/dataset/trc/00510_00183.trc
DataRate	CameraRate	NumFrames	NumMarkers	Units	OrigDataRate	OrigDataStartFrame	OrigNumFrames
100.000000	100.000000	4	53	mm	100.000000	334	382
Frame#	Time	RPSI			LPSI			L3			STRN			T10			C7			CLAV			RBAK			LBAK			LSHO			LUPA			LAEL			LAOL			LWTS			LWPS			LFRA			LIFD			LHPS			LHTS			RSHO			RUPA			RAEL			RAOL			RWTS			RWPS			RFRA			RIFD			RHTS			RBHD			LFHD			RFHD			LBHD			LHIP			RHIP			RASI			LASI			LKNE			LTHI			LANK			LTIP			LTOE			LMT1			LMT5			LHEE			RKNE			RTHI			RANK			RTIP			RTOE			RMT1			RMT5			RHEE			RHPS			
		X1	Y1	Z1	X2	Y2	Z2	X3	Y3	Z3	X4	Y4	Z4	X5	Y5	Z5	X6	Y6	Z6	X7	Y7	Z7	X8	Y8	Z8	X9	Y9	Z9	X10	Y10	Z10	X11	Y11	Z11	X12	Y12	Z12	X13	Y13	Z13	X14	Y14	Z14	X15	Y15	Z15	X16	Y16	Z16	X17	Y17	Z17	X18	Y18	Z18	X19	Y19	Z19	X20	Y20	Z20	X21	Y21	Z21	X22	Y22	Z22	X23	Y23	Z23	X24	Y24	Z24	X25	Y25	Z25	X26	Y26	Z26	X27	Y27	Z27	X28	Y28	Z28	X29	Y29	Z29	X30	Y30	Z30	X31	Y31	Z31	X32	Y32	Z32	X33	Y33	Z33	X34	Y34	Z34	X35	Y35	Z35	X36	Y36	Z36	X37	Y37	Z37	X38	Y38	Z38	X39	Y39	Z39	X40	Y40	Z40	X41	Y41	Z41	X42	Y42	Z42	X43	Y43	Z43	X44	Y44	Z44	X45	Y45	Z45	X46	Y46	Z46	X47	Y47	Z47	X48	Y48	Z48	X49	Y49	Z49	X50	Y50	Z50	X51	Y51	Z51	X52	Y52	Z52	X53	Y53	Z53	

335	3.34	1105.068237304688	953.3215942382812	952.1835327148438	1174.299682617188	950.70166015625	843.6428833007812	1138.252075195312	1027.503051757812	893.8472900390625	1334.161010742188	1192.08935546875	991.215576171875	1126.093017578125	1130.924560546875	888.674560546875	1164.786865234375	1361.9384765625	904.9368286132812	1301.632080078125	1286.518188476562	972.3702392578125	1082.454833984375	1242.003051757812	962.1543579101562	1179.115966796875	1304.659301757812	818.865478515625	1295.481323242188	1348.433471679688	790.0133056640625	1294.093383789062	1223.755737304688	728.504638671875	1291.775268554688	1031.574340820312	710.76953125	1197.19140625	1011.178894042969	740.655517578125	1425.236694335938	939.7718505859375	841.7930908203125	1404.418579101562	864.8687744140625	788.494384765625	1335.669677734375	982.1163940429688	735.7792358398438	1493.080078125	814.6649780273438	900.7036743164062	1447.727905273438	836.2908935546875	812.2454223632812	1480.225708007812	880.5137329101562	849.1520385742188	1146.2744140625	1359.470703125	1061.703125	1099.724609375	1295.196533203125	1100.780883789062	1059.080322265625	1031.454467773438	1132.631469726562	1032.13671875	1012.092102050781	1074.87841796875	1221.327514648438	892.5543823242188	1166.089111328125	1151.180419921875	846.4680786132812	1199.381713867188	1067.908813476562	981.8836059570312	1144.083862304688	1286.838623046875	760.3309936523438	1218.787963867188	1262.984497070312	826.711181640625	1221.253051757812	1146.296997070312	1505.675170898438	977.874755859375	1322.180419921875	1591.369995117188	935.1066284179688	1244.845458984375	1583.29296875	1035.001953125	1232.387329101562	1508.89111328125	844.2534790039062	1331.63623046875	887.6275634765625	789.2761840820312	1135.888305664062	851.2440795898438	1099.63037109375	1251.073974609375	904.2203979492188	1106.405029296875	1374.31591796875	921.3104858398438	897.9791870117188	1329.498168945312	466.61865234375	825.7884521484375	1352.763916015625	624.5997314453125	814.8877563476562	1210.770263671875	42.09128952026367	739.9696655273438	1294.768310546875	318.8068237304688	791.5348510742188	1332.70703125	26.01528930664062	907.1771240234375	1253.922119140625	34.03908538818359	882.563232421875	1307.925170898438	33.62343597412109	797.5126342773438	1136.593872070312	34.85671997070312	762.2347412109375	1182.657348632812	467.7199096679688	1073.067626953125	1172.681518554688	730.9197387695312	1124.217041015625	1108.64013671875	41.32128143310547	980.3485717773438	1187.567260742188	321.6974182128906	1050.406616210938	1302.011840820312	27.59407806396484	1049.940551757812	1264.808959960938	33.34077072143555	983.3167114257812	1196.968872070312	34.38982009887695	1052.706787109375	1088.875366210938	32.55614471435547	912.3687744140625	1199.294067382812	795.2189331054688	1227.56689453125	
336	3.35	1105.512451171875	953.217529296875	952.4208374023438	1174.613159179688	950.7514038085938	844.0038452148438	1138.512573242188	1027.0654296875	894.1676635742188	1334.582763671875	1191.842651367188	991.306884765625	1126.41015625	1130.589599609375	888.9210205078125	1165.10302734375	1361.6708984375	905.1790771484375	1302.021484375	1286.247924804688	972.4658813476562	1082.798828125	1241.650268554688	962.4634399414062	1179.336669921875	1304.347290039062	819.1254272460938	1295.605102539062	1348.09912109375	790.1035766601562	1294.327026367188	1223.386474609375	728.6497192382812	1292.306518554688	1031.121704101562	711.051513671875	1197.724487304688	1010.678039550781	740.79296875	1425.7021484375	939.4415283203125	842.3209228515625	1405.0107421875	864.5017700195312	789.0287475585938	1336.225219726562	981.697998046875	736.135986328125	1493.406982421875	814.3802490234375	901.454345703125	1448.220458984375	835.9387817382812	812.8884887695312	1480.682739257812	880.2022094726562	849.8383178710938	1146.697387695312	1359.1640625	1061.947021484375	1100.139404296875	1294.833374023438	1101.071533203125	1059.739868164062	1031.054077148438	1133.120971679688	1032.571655273438	1011.793334960938	1075.485595703125	1221.895751953125	891.7135009765625	1165.7685546875	1151.704223632812	845.794921875	1199.235961914062	1068.513916015625	981.4069213867188	1144.509399414062	1287.040161132812	759.3538208007812	1218.593017578125	1263.493408203125	825.7946166992188	1220.871948242188	1146.878295898438	1505.617309570312	978.0326538085938	1322.90673828125	1591.012451171875	935.1640625	1245.617797851562	1583.147094726562	1035.1533203125	1232.953369140625	1508.6865234375	844.400390625	1332.109130859375	887.2794799804688	789.62939453125	1136.339721679688	851.1421508789062	1099.936889648438	1251.64501953125	903.9932861328125	1106.637939453125	1374.830444335938	921.0284423828125	898.20654296875	1329.703125	466.4288330078125	825.7824096679688	1353.032592773438	624.37744140625	814.9618530273438	1210.783203125	41.83716583251953	740.0071411132812	1294.838134765625	318.6669006347656	791.5145263671875	1332.624267578125	26.00413703918457	907.13916015625	1253.862670898438	33.98378753662109	882.5515747070312	1307.9111328125	33.55182647705078	797.4940185546875	1136.52001953125	34.65801239013672	762.2387084960938	1182.733154296875	467.4876708984375	1073.076293945312	1172.85498046875	730.6451416015625	1124.2841796875	1108.653686523438	41.26558303833008	980.296142578125	1187.620361328125	321.483154296875	1050.314575195312	1302.012451171875	27.57769393920898	1049.951904296875	1264.845825195312	33.27780532836914	983.2293701171875	1196.976806640625	34.47843551635742	1052.59521484375	1088.839721679688	32.33695983886719	912.2984619140625	1199.754638671875	794.47021484375	1227.331176757812	
337	3.36	1105.881958007812	953.1310424804688	952.570068359375	1174.783935546875	951.0565185546875	844.5192260742188	1138.744262695312	1026.615234375	894.391357421875	1334.960327148438	1191.593505859375	991.4013061523438	1126.702514648438	1130.254760742188	889.1317749023438	1165.401489257812	1361.41552734375	905.348388671875	1302.373413085938	1285.977905273438	972.5576171875	1083.0966796875	1241.296752929688	962.7335815429688	1179.561645507812	1304.04345703125	819.344970703125	1295.745483398438	1347.781860351562	790.198486328125	1294.616943359375	1223.039184570312	728.7963256835938	1292.900146484375	1030.697631835938	711.3118896484375	1198.321166992188	1010.153503417969	740.856689453125	1426.158081054688	939.1287841796875	842.8917846679688	1405.630859375	864.15966796875	789.5775146484375	1336.844482421875	981.3130493164062	736.4864501953125	1493.68310546875	814.1116333007812	902.2901611328125	1448.73974609375	835.6168823242188	813.5851440429688	1481.12255859375	879.9142456054688	850.6077270507812	1147.072998046875	1358.85888671875	1062.153930664062	1100.505615234375	1294.475952148438	1101.317626953125	1060.390991210938	1030.631591796875	1133.540649414062	1033.027221679688	1011.466979980469	1076.02001953125	1222.443725585938	890.87109375	1165.489013671875	1152.166259765625	845.0518798828125	1198.964599609375	1069.138549804688	980.9006958007812	1144.88232421875	1287.181274414062	758.33349609375	1218.470092773438	1263.912475585938	824.8541259765625	1220.55126953125	1147.440673828125	1505.576538085938	978.1635131835938	1323.616333007812	1590.650146484375	935.1697387695312	1246.36376953125	1583.004028320312	1035.250732421875	1233.477661132812	1508.45166015625	844.5338134765625	1332.540283203125	886.86767578125	790.0582275390625	1136.71630859375	851.0291137695312	1100.210083007812	1252.141845703125	903.7555541992188	1106.837524414062	1375.3095703125	920.75	898.4251708984375	1329.889282226562	466.2398681640625	825.7759399414062	1353.296875	624.1570434570312	815.0263671875	1210.833618164062	41.56813049316406	740.05712890625	1294.90673828125	318.5145568847656	791.5023803710938	1332.537841796875	25.98393249511719	907.1057739257812	1253.80322265625	33.9283332824707	882.5372314453125	1307.900024414062	33.47855758666992	797.4746704101562	1136.461181640625	34.45118713378906	762.241455078125	1182.772338867188	467.24365234375	1073.036499023438	1172.95361328125	730.3595581054688	1124.317993164062	1108.676879882812	41.21353149414062	980.2301635742188	1187.658935546875	321.2584228515625	1050.193969726562	1302.015014648438	27.55529975891113	1049.970336914062	1264.885131835938	33.21366500854492	983.137451171875	1196.986694335938	34.57638549804688	1052.469482421875	1088.807739257812	32.10493850708008	912.2619018554688	1200.075073242188	793.5623779296875	1226.931762695312	
338	3.37	1106.189819335938	953.068359375	952.6376953125	1174.830200195312	951.5790405273438	845.1685791015625	1138.951416015625	1026.165283203125	894.5172119140625	1335.287231445312	1191.34423828125	991.4977416992188	1126.960205078125	1129.930908203125	889.3148193359375	1165.6767578125	1361.173461914062	905.4513549804688	1302.681396484375	1285.712768554688	972.6481323242188	1083.353271484375	1240.955932617188	962.9671020507812	1179.783447265625	1303.7568359375	819.5162963867188	1295.902709960938	1347.485717773438	790.2991943359375	1294.962036132812	1222.7177734375	728.9426879882812	1293.554443359375	1030.305419921875	711.5504760742188	1198.988037109375	1009.634582519531	740.8538208007812	1426.603149414062	938.8312377929688	843.4948120117188	1406.274169921875	863.8401489257812	790.1275024414062	1337.521484375	980.9641723632812	736.8283081054688	1493.909790039062	813.8531494140625	903.1985473632812	1449.294311523438	835.3226928710938	814.3242797851562	1481.542846679688	879.6426391601562	851.4492797851562	1147.402587890625	1358.560791015625	1062.327270507812	1100.836791992188	1294.138916015625	1101.52294921875	1061.034057617188	1030.1953125	1133.88916015625	1033.500610351562	1011.106689453125	1076.482543945312	1222.977783203125	890.0416259765625	1165.24951171875	1152.579345703125	844.2684936523438	1198.59619140625	1069.7900390625	980.373046875	1145.1953125	1287.271484375	757.2752685546875	1218.388793945312	1264.2578125	823.89990234375	1220.280029296875	1147.986450195312	1505.550659179688	978.2620239257812	1324.304931640625	1590.286987304688	935.1260986328125	1247.078857421875	1582.86083984375	1035.288818359375	1233.966796875	1508.188842773438	844.6455078125	1332.930419921875	886.4246215820312	790.5257568359375	1137.0068359375	850.9039916992188	1100.454345703125	1252.553588867188	903.5059204101562	1107.008178710938	1375.759887695312	920.4803466796875	898.6408081054688	1330.055541992188	466.05712890625	825.7665405273438	1353.563842773438	623.943359375	815.08447265625	1210.904174804688	41.29241561889648	740.1218872070312	1294.966674804688	318.3499450683594	791.49609375	1332.449096679688	25.95516586303711	907.0790405273438	1253.744995117188	33.87395095825195	882.5200805664062	1307.890258789062	33.40433120727539	797.4560546875	1136.417114257812	34.24283599853516	762.2406616210938	1182.781372070312	466.9920959472656	1072.952026367188	1172.96630859375	730.0618896484375	1124.322998046875	1108.709106445312	41.1579704284668	980.1460571289062	1187.682006835938	321.0217895507812	1050.046020507812	1302.019287109375	27.52878570556641	1049.994995117188	1264.925903320312	33.14773559570312	983.0443115234375	1196.995849609375	34.67800903320312	1052.334228515625	1088.770385742188	31.85634422302246	912.2327270507812	1200.2734375	792.4999389648438	1226.365478515625	
